<!DOCTYPE svg PUBLIC "-//W3C//DTD SVG 1.1//EN" "http://www.w3.org/Graphics/SVG/1.1/DTD/svg11.dtd">
<!-- Uploaded to: SVG Repo, www.svgrepo.com, Transformed by: SVG Repo Mixer Tools -->
<svg version="1.1" id="Layer_1" xmlns="http://www.w3.org/2000/svg" xmlns:xlink="http://www.w3.org/1999/xlink" viewBox="0 0 512 512" xml:space="preserve" width="80px" height="80px" fill="#000000">
<g id="SVGRepo_bgCarrier" stroke-width="0"/>
<g id="SVGRepo_tracerCarrier" stroke-linecap="round" stroke-linejoin="round"/>
<g id="SVGRepo_iconCarrier"> <rect x="235.875" y="108.88" style="fill:#E8E8E8;" width="152.644" height="294.241"/> <rect x="235.875" y="108.88" width="152.644" height="31.288"/> <rect x="417.993" y="108.88" style="fill:#E8E8E8;" width="94.007" height="294.241"/> <rect x="417.993" y="108.88" width="94.007" height="31.288"/> <rect y="108.88" style="fill:#E8E8E8;" width="205.618" height="294.241"/> <rect y="108.88" width="205.618" height="31.288"/> <rect x="21.415" y="161.43" style="fill:#E21B1B;" width="162.796" height="101.235"/> <rect x="44.331" y="289.872" style="fill:#222020;" width="116.963" height="7.988"/> <g> <rect x="21.415" y="321.822" style="fill:#999999;" width="162.796" height="3.994"/> <rect x="21.415" y="339.587" style="fill:#999999;" width="162.796" height="3.994"/> <rect x="21.415" y="357.327" style="fill:#999999;" width="162.796" height="3.994"/> <rect x="21.415" y="375.084" style="fill:#999999;" width="162.796" height="3.994"/> </g> <rect x="256.403" y="161.43" style="fill:#E21B1B;" width="111.571" height="101.235"/> <rect x="272.139" y="289.872" style="fill:#222020;" width="80.196" height="7.988"/> <g> <rect x="256.403" y="321.822" style="fill:#999999;" width="111.571" height="3.994"/> <rect x="256.403" y="339.587" style="fill:#999999;" width="111.571" height="3.994"/> <rect x="256.403" y="357.327" style="fill:#999999;" width="111.571" height="3.994"/> <rect x="256.403" y="375.084" style="fill:#999999;" width="111.571" height="3.994"/> </g> <rect x="433.569" y="161.43" style="fill:#E21B1B;" width="60.882" height="64.141"/> <rect x="442.116" y="257.921" style="fill:#222020;" width="43.748" height="7.988"/> <g> <rect x="433.569" y="286.333" style="fill:#999999;" width="60.882" height="3.994"/> <rect x="433.569" y="304.09" style="fill:#999999;" width="60.882" height="3.994"/> <rect x="433.569" y="321.822" style="fill:#999999;" width="60.882" height="3.994"/> <rect x="433.569" y="339.587" style="fill:#999999;" width="60.882" height="3.994"/> <rect x="433.569" y="357.327" style="fill:#999999;" width="60.882" height="3.994"/> <rect x="433.569" y="375.084" style="fill:#999999;" width="60.882" height="3.994"/> </g> </g>
</svg>