<!DOCTYPE svg PUBLIC "-//W3C//DTD SVG 1.1//EN" "http://www.w3.org/Graphics/SVG/1.1/DTD/svg11.dtd">
<!-- Uploaded to: SVG Repo, www.svgrepo.com, Transformed by: SVG Repo Mixer Tools -->
<svg version="1.1" id="Layer_1" xmlns="http://www.w3.org/2000/svg" xmlns:xlink="http://www.w3.org/1999/xlink" viewBox="0 0 512 512" xml:space="preserve" width="80px" height="80px" fill="#000000">
<g id="SVGRepo_bgCarrier" stroke-width="0"/>
<g id="SVGRepo_tracerCarrier" stroke-linecap="round" stroke-linejoin="round"/>
<g id="SVGRepo_iconCarrier"> <rect x="4" y="109.848" style="fill:#FFFFFF;" width="504" height="358.496"/> <g> <polygon style="fill:#E2E2E2;" points="369.968,431.16 142.032,431.16 104.664,459.576 407.336,459.576 "/> <polygon style="fill:#E2E2E2;" points="113.32,431.16 47.632,431.16 10.256,459.576 76.072,459.576 "/> <polygon style="fill:#E2E2E2;" points="464.368,431.16 398.68,431.16 435.928,459.576 501.744,459.576 "/> <polygon style="fill:#E2E2E2;" points="369.968,147.784 142.032,147.784 104.664,119.36 407.336,119.36 "/> <polygon style="fill:#E2E2E2;" points="113.32,147.784 47.632,147.784 10.256,119.36 76.072,119.36 "/> <polygon style="fill:#E2E2E2;" points="464.368,147.784 398.68,147.784 435.928,119.36 501.744,119.36 "/> </g> <path style="fill:#E5E5E5;" d="M504,113.848v350.496H8V113.848H504 M512,105.848H0v366.496h512V105.848z"/> <path d="M0,119.36V55.64c0.024-8.824,7.176-15.976,16-16h479.96c8.824,0.024,15.976,7.176,16,16v63.728 C511.96,119.368,0,119.368,0,119.36z"/> <polygon style="fill:#FFFFFF;" points="471.624,101.496 171.536,101.496 200.24,57.496 471.624,57.496 "/> <circle style="fill:#E21B1B;" cx="53.904" cy="78.904" r="13.608"/> <circle style="fill:#939393;" cx="89.976" cy="78.904" r="13.608"/> <circle style="fill:#E2E2E2;" cx="126.056" cy="78.904" r="13.608"/> <path d="M215.624,71.24l1.912,8.312c0.416,1.952,0.8,3.944,1.168,5.936h0.08c0.376-1.992,0.976-4,1.504-5.896l2.4-8.352h3.76 l2.296,8.128c0.56,2.144,1.048,4.136,1.464,6.128h0.08c0.296-1.992,0.712-4,1.2-6.128l2.032-8.128h4.544l-5.752,18.312H228 l-2.176-7.448c-0.568-1.928-1.032-3.888-1.392-5.864h-0.08c-0.336,1.984-0.8,3.944-1.392,5.864l-2.328,7.448h-4.328L210.88,71.24 H215.624z"/> <path d="M244.384,71.24l1.912,8.312c0.416,1.952,0.8,3.944,1.168,5.936h0.08c0.376-1.992,0.976-4,1.504-5.896l2.4-8.352h3.76 l2.296,8.128c0.56,2.144,1.048,4.136,1.464,6.128h0.08c0.296-1.992,0.712-4,1.2-6.128l2.032-8.128h4.544l-5.752,18.312h-4.288 l-2.176-7.448c-0.568-1.928-1.032-3.888-1.392-5.864h-0.08c-0.336,1.984-0.8,3.944-1.392,5.864l-2.328,7.448h-4.328L239.64,71.24 H244.384z"/> <path d="M273.152,71.24l1.912,8.312c0.416,1.952,0.8,3.944,1.168,5.936h0.08c0.376-1.992,0.976-4,1.504-5.896l2.4-8.352h3.76 l2.296,8.128c0.56,2.144,1.048,4.136,1.464,6.128h0.08c0.296-1.992,0.712-4,1.2-6.128l2.032-8.128h4.544l-5.752,18.312h-4.32 l-2.176-7.448c-0.568-1.928-1.032-3.888-1.392-5.864h-0.08c-0.336,1.984-0.8,3.944-1.392,5.864l-2.328,7.448h-4.328l-5.416-18.312 H273.152z"/> <path d="M296.312,86.992c-0.088-1.552,1.096-2.872,2.64-2.96c0.072-0.008,0.144-0.008,0.216-0.008c1.64,0,2.968,1.328,2.968,2.968 s-1.328,2.96-2.968,2.968c-1.552,0.024-2.832-1.216-2.856-2.768C296.304,87.12,296.312,87.056,296.312,86.992z"/> <polygon points="342.688,464.2 169.312,464.2 193.312,445.952 318.688,445.952 "/> <rect y="459.592" width="512" height="12.768"/> <polygon points="501.744,459.576 435.928,459.576 407.336,459.576 104.664,459.576 76.072,459.576 10.256,459.576 0,459.576 0,472.344 512,472.344 512,459.576 "/> <polygon points="440.352,92.496 437.496,89.696 447.384,79.544 436.904,69.32 439.696,66.464 453.04,79.464 "/> <rect x="421.616" y="77.496" width="26.416" height="4"/> <polygon style="fill:#E21B1B;" points="443.176,368.88 388.76,314.448 364.32,338.888 349.392,252.992 454.232,357.824 "/> <polygon style="fill:#F91E1E;" points="465.28,346.768 410.864,292.352 435.304,267.912 349.392,252.992 454.232,357.824 "/> <rect x="80.88" y="173.096" style="fill:#E21B1B;" width="147.096" height="147.096"/> <rect x="165.76" y="257.992" width="147.096" height="147.096"/> <rect x="165.76" y="257.992" style="fill:#F91E1E;" width="62.192" height="62.192"/> </g>
</svg>